<svg xmlns="http://www.w3.org/2000/svg" width="24" height="24" viewBox="0 0 24 24" fill="none"><path fill-rule="evenodd" clip-rule="evenodd" d="M14.7578 21.375H2.24978C2.03144 21.3751 1.82391 21.28 1.68138 21.1146C1.53885 20.9492 1.47546 20.7299 1.50778 20.514L7.37878 6.375H17.8788L15.4998 20.514C15.5321 20.7299 15.4687 20.9492 15.3262 21.1146C15.1836 21.28 14.9761 21.3751 14.7578 21.375V21.375Z" stroke="#F43319" stroke-width="1.5" stroke-linecap="round" stroke-linejoin="round"/><path d="M12.5249 11.1989L10.5559 10.6989C9.93274 10.5382 9.28331 10.8428 9.00848 11.4247C8.73366 12.0066 8.91094 12.7017 9.43088 13.0809L11.2239 14.3929C11.7375 14.7739 11.9106 15.4647 11.6373 16.0429C11.364 16.6211 10.7204 16.9259 10.0999 16.7709L8.12988 16.2709" stroke="#F43319" stroke-width="1.5" stroke-linecap="round" stroke-linejoin="round"/><path d="M11.0718 10.828L11.4448 9.375" stroke="#F43319" stroke-width="1.5" stroke-linecap="round" stroke-linejoin="round"/><path d="M9.20996 18.0936L9.58196 16.6406" stroke="#F43319" stroke-width="1.5" stroke-linecap="round" stroke-linejoin="round"/><path d="M2.25 10.125H1.5C1.08579 10.125 0.75 9.78921 0.75 9.375V3.375C0.75 2.96079 1.08579 2.625 1.5 2.625H22.5C22.9142 2.625 23.25 2.96079 23.25 3.375V9.375C23.25 9.78921 22.9142 10.125 22.5 10.125H20.25" stroke="#F43319" stroke-width="1.5" stroke-linecap="round" stroke-linejoin="round"/></svg>