<svg fill="none" height="24" viewBox="0 0 24 24" width="24" xmlns="http://www.w3.org/2000/svg"><g stroke="#f43319" stroke-linecap="round" stroke-linejoin="round" stroke-width="1.5"><path clip-rule="evenodd" d="m14.7578 21.375h-12.50802c-.21834.0001-.42587-.095-.5684-.2604s-.20592-.3847-.1736-.6006l5.871-14.139h10.50002l-2.379 14.139c.0323.2159-.0311.4352-.1736.6006-.1426.1654-.3501.2605-.5684.2604z" fill-rule="evenodd"/><path d="m12.5249 11.1989-1.969-.5c-.62316-.1607-1.27259.1439-1.54742.7258-.27482.5819-.09754 1.277.4224 1.6562l1.79302 1.312c.5136.381.6867 1.0718.4134 1.65s-.9169.883-1.5374.728l-1.97002-.5"/><path d="m11.0718 10.828.373-1.453"/><path d="m9.20996 18.0936.372-1.453"/><path d="m2.25 10.125h-.75c-.41421 0-.75-.33579-.75-.75v-6c0-.41421.33579-.75.75-.75h21c.4142 0 .75.33579.75.75v6c0 .41421-.3358.75-.75.75h-2.25"/></g></svg>