<svg fill="none" height="30" viewBox="0 0 30 30" width="30" xmlns="http://www.w3.org/2000/svg"><path d="m25.65 12.7005c.8532-.8357 1.35-1.9771 1.35-3.2005 0-2.4812-2.0186-4.5-4.5-4.5-.8198 0-1.6265.22534-2.3335.65185-.2363.14282-.3125.44995-.1699.68653.1426.23657.4502.31201.6865.16992.5513-.33252 1.1792-.5083 1.8169-.5083 1.9297 0 3.5 1.57007 3.5 3.5 0 1.1885-.5952 2.2839-1.5942 2.9319-.8389.5503-1.9024.709-2.8736.4324-.2627-.0757-.542.0776-.6181.3432-.0757.2656.0781.5423.3437.6182.4043.1157.8223.1743 1.2422.1743.7862 0 1.5462-.2145 2.2209-.6018 2.5668.9301 4.2791 3.3534 4.2791 6.1018v2.5h-4.5593c-.3541-3.3396-2.4552-6.2621-5.5198-7.6497.9752-.993 1.5791-2.3519 1.5791-3.8503 0-3.03272-2.4673-5.5-5.5-5.5s-5.5 2.46728-5.5 5.5c0 1.4989.6042 2.8582 1.58 3.8512-1.0314.4686-1.98793 1.1242-2.79924 1.9308-1.55527 1.5597-2.50168 3.5616-2.72632 5.718h-4.55444v-2.5c0-1.7314.67627-3.364 1.90234-4.5952.67496-.6707 1.49668-1.1823 2.38141-1.5039.67487.3858 1.43256.5991 2.21625.5991.41992 0 .83789-.0586 1.24219-.1743.26563-.0759.41943-.3526.34375-.6182-.07617-.2656-.35547-.4187-.61816-.3432-.97071.2771-2.03369.1186-2.87598-.4336-.99658-.6468-1.5918-1.7422-1.5918-2.9307 0-1.92993 1.57031-3.5 3.5-3.5.6377 0 1.26562.17578 1.81689.5083.23731.14209.54346.06592.68651-.16992.1426-.23657.0664-.5437-.1699-.68653-.70704-.42651-1.51367-.65185-2.3335-.65185-2.48145 0-4.5 2.0188-4.5 4.5 0 1.2224.496 2.363 1.34671 3.1979-.79294.3686-1.5253.8775-2.1514 1.4994-1.415525 1.4218-2.19531 3.3049-2.19531 5.3027v3c0 .2761.223635.5.5.5h5v4c0 .2761.22364.5.5.5h18c.2764 0 .5-.2239.5-.5v-4h5c.2764 0 .5-.2239.5-.5v-3c0-2.9563-1.7181-5.5863-4.35-6.7995zm-10.65-6.7005c2.4814 0 4.5 2.0188 4.5 4.5s-2.0186 4.5-4.5 4.5-4.5-2.0188-4.5-4.5 2.0186-4.5 4.5-4.5zm8.5 20.5h-17v-3.5c0-2.2671.88379-4.4021 2.4873-6.0105.84476-.8402 1.8688-1.492 2.9668-1.9136.8728.5829 1.92.9241 3.0459.9241 1.1278 0 2.1768-.3422 3.0504-.9269 3.2682 1.2558 5.4496 4.4066 5.4496 7.9269z" fill="#555"/></svg>