<svg fill="none" height="49" viewBox="0 0 252 49" width="252" xmlns="http://www.w3.org/2000/svg" xmlns:xlink="http://www.w3.org/1999/xlink"><clipPath id="a"><path d="m.499512 0h251v49h-251z"/></clipPath><g clip-path="url(#a)"><path d="m16.5098 48.1218h-9.44844v-23.6591h-6.436482v-7.703h6.436232v-5.4812c0-6.49517 2.84676-11.1535 12.26969-11.1535 1.9929 0 5.1218.403495 5.1218.403495v7.152595h-3.2863c-3.3486 0-4.656 1.0231-4.656 3.85161v5.227h7.8169l-.6961 7.703h-7.121zm21.6798-31.9776c-.1376 0-.2793.005-.4195.0085-8.7612 0-12.7696 6.6197-12.7696 16.0164 0 11.8374 5.1995 16.5751 12.8381 16.5751 4.3703 0 7.2416-1.8477 8.9868-5.2958v4.6767h8.9869v-31.3621h-8.9869v4.8231c-1.425-3.1031-4.3766-5.4052-8.6358-5.4419zm2.2851 7.4107c3.6797 0 5.8883 2.5782 5.8883 6.9635l.0086 4.479c0 2.9557-1.8242 6.4136-5.8969 6.4136-6.2612 0-6.094-6.7909-6.094-9.0527 0-7.6082 3.336-8.8034 6.094-8.8034zm18.9669 8.8908c0-3.8111-.1815-16.2811 15.9928-16.2811 6.4927 0 9.2038 2.0736 9.2038 2.0736l-2.1791 6.7887s-2.7075-1.4977-6.2356-1.4977c-4.5187 0-7.4021 2.6313-7.4021 7.2609l.005 3.3197c0 4.4485 2.7821 7.4181 7.4064 7.4181 3.2141 0 6.1764-1.5118 6.1764-1.5118l2.1735 6.6469s-2.4789 2.0867-9.1029 2.0867c-15.4005 0-16.0379-11.188-16.0379-16.304zm77.8894-16.293c8.762 0 12.833 6.6197 12.833 16.0164 0 11.8374-5.199 16.5751-12.838 16.5751-4.37 0-7.601-1.8475-9.346-5.2958v4.6767l-8.874-.0035v-47.04302l9.422-.825378v20.907998c1.36-3.6579 5.828-5.0085 8.804-5.0085zm-2.641 7.4022c-3.68 0-6.162 2.5782-6.162 6.9635l-.009 4.479c-.005 2.9557 1.719 6.4136 6.171 6.4136 6.261 0 6.094-6.7909 6.094-9.0527 0-7.6082-3.336-8.8034-6.094-8.8034zm-33.704-7.3762c-9.9377 0-15.1839 5.4421-15.1839 15.1134v1.7969c0 12.5524 7.3673 15.7841 16.1509 15.7841 8.537 0 12.401-2.3985 12.401-2.3985l-1.763-6.3874s-4.545 1.9426-9.509 1.9426c-5.1451 0-7.358-1.3172-7.9252-6.2841h19.9502v-5.1243c0-10.4909-5.887-14.443-14.122-14.443zm.239 6.396c3.44 0 5.669 2.1187 5.546 7.0324h-11.5969c.2011-5.1716 2.6048-7.0322 6.0509-7.0322zm67.726-6.4391c-10.205 0-15.577 5.7764-15.577 16.128 0 14.2029 9.26 16.4891 15.594 16.4891 9.272 0 15.44-5.0139 15.44-16.3602 0-11.8094-6.936-16.2569-15.457-16.2569zm-.129 7.445c4.488 0 6.266 3.3733 6.266 7.2131v3.3012c0 4.6516-2.488 7.342-6.283 7.342-3.548 0-6.042-2.5167-6.042-7.342v-3.3012c0-5.1462 2.967-7.2131 6.059-7.2131zm34.356-7.445c-10.205 0-15.577 5.7764-15.577 16.128 0 14.2029 9.26 16.4891 15.594 16.4891 9.271 0 15.44-5.0139 15.44-16.3602 0-11.8094-6.936-16.2569-15.457-16.2569zm-.129 7.445c4.487 0 6.265 3.3733 6.265 7.2131v3.3012c0 4.6516-2.488 7.342-6.282 7.342-3.548 0-6.042-2.5167-6.042-7.342v-3.3012c0-5.1462 2.967-7.2131 6.059-7.2131zm19.146 24.5412v-47.04322l9.449-.825378v31.531298l9.375-15.0248h9.978l-9.779 15.5613 10.156 15.8008h-10.007l-9.723-15.3424v15.3424z" fill="#555"/></g></svg>