<svg fill="none" height="30" viewBox="0 0 30 30" width="30" xmlns="http://www.w3.org/2000/svg"><g fill="#555"><path d="m2.5 30h17.5 8c.8272 0 1.5-.6728 1.5-1.5v-16c0-.8272-.6728-1.5-1.5-1.5h-3.5v-9c0-1.102785-.8972-2-2-2h-20c-1.10278 0-2 .897215-2 2v26c0 1.1028.89722 2 2 2zm-1-2v-3h17v3.5c0 .1762.0361.3428.0922.5h-16.0922c-.55151 0-1-.4485-1-1zm27-2h-9v-11.5h9zm-.5 3h-8c-.2756 0-.5-.2244-.5-.5v-1.5h9v1.5c0 .2756-.2244.5-.5.5zm.5-16.5v1h-9v-1c0-.2756.2244-.5.5-.5h8c.2756 0 .5.2244.5.5zm-8.5-1.5c-.8271 0-1.5.6728-1.5 1.5v11.5h-17v-20h22v7zm-17.5-10h20c.5515 0 1 .44849 1 1v1h-22v-1c0-.55151.44849-1 1-1z"/><path d="m12.5 25.5c-.8272 0-1.5.6729-1.5 1.5 0 .8272.6728 1.5 1.5 1.5.8271 0 1.5-.6728 1.5-1.5 0-.8271-.6729-1.5-1.5-1.5zm0 2c-.2756 0-.5-.2244-.5-.5s.2244-.5.5-.5.5.2244.5.5-.2244.5-.5.5z"/></g></svg>