<svg fill="none" height="49" viewBox="0 0 71 49" width="71" xmlns="http://www.w3.org/2000/svg"><path clip-rule="evenodd" d="m71 24.5c0 13.5265-11.0164 24.5-24.5958 24.5-3.9122 0-7.5991-.8952-10.9264-2.553-3.2829 1.6129-7.0149 2.553-10.8813 2.553-13.5801 0-24.5965-10.9735-24.5965-24.5s11.0164-24.5 24.5958-24.5c3.9122 0 7.5991.895876 10.8813 2.50819 3.283-1.612314 7.0149-2.50819 10.9271-2.50819 13.5794 0 24.5958 10.9735 24.5958 24.5zm-4.8559 0c0-10.8389-8.8586-19.6624-19.7399-19.6624-2.0684 0-4.0916.31336-5.9354.89587 3.777 3.13491 6.5201 7.34513 7.8686 12.18273h-5.0811c-1.4272-4.0384-4.1436-7.4997-7.7334-9.85398-3.5525 2.32878-6.2507 5.77828-7.6892 9.85398h-5.081c1.3306-4.7705 4.0725-9.03132 7.8686-12.22759-1.9373-.59486-3.9532-.89684-5.9804-.89588-10.8813 0-19.73935 8.82347-19.73935 19.66237s8.85805 19.6631 19.73935 19.6631c2.0683 0 4.0465-.3133 5.8903-.8959-4.9009-4.0756-8.0931-10.0776-8.5878-16.796h11.6906v4.7921l-5.7108.0897c1.4841 3.9417 4.1372 7.2567 7.5997 9.5406 3.4617-2.2845 6.1148-5.5989 7.599-9.5406l-5.7109-.0897v-4.7921h11.6913c-.5398 6.7184-3.777 12.6755-8.6786 16.7512 1.8889.5825 3.9121.9407 5.9805.9407 10.9263.0449 19.7399-8.7344 19.7399-19.6182z" fill="#555" fill-rule="evenodd"/></svg>