<svg fill="none" height="49" viewBox="0 0 182 49" width="182" xmlns="http://www.w3.org/2000/svg"><g fill="#555"><path d="m70.3834 18.7266c-2.3302 0-3.483 1.841-4.0119 3.0286-.2955.6631-.3782 1.1874-.6178 1.1874-.3377 0-.0959-.4557-.3722-1.4662-.3636-1.3296-1.4595-2.7498-3.7881-2.7498-2.4481 0-3.4963 2.0767-3.9934 3.2179-.3398.7801-.3403.9981-.6016.9981-.3788 0-.065-.6197.1053-1.3482.3357-1.4344.0805-2.5306.0805-2.5306h-3.8807v14.6515h5.2971s0-6.1232 0-7.2898c0-1.4378.599-3.2623 1.6259-3.2623 1.1864 0 1.4239.9148 1.4239 2.6088v7.9465h5.3184s0-6.1604 0-7.293c0-1.2798.5202-3.2623 1.6336-3.2623 1.203 0 1.416 1.2852 1.416 2.6088v7.9433h5.2228s0-5.8053 0-8.616c0-3.8235-1.3425-6.3727-4.8578-6.3727z"/><path d="m160.294 18.7266c-2.33 0-3.483 1.841-4.012 3.0286-.296.6631-.378 1.1874-.618 1.1874-.338 0-.111-.5789-.372-1.4662-.388-1.3226-1.354-2.7498-3.788-2.7498-2.448 0-3.496 2.0767-3.993 3.2179-.34.7801-.341.9981-.602.9981-.379 0-.065-.6197.105-1.3482.336-1.4344.081-2.5306.081-2.5306h-3.881v14.6515h5.297s0-6.1232 0-7.2898c0-1.4378.599-3.2623 1.626-3.2623 1.186 0 1.424.9148 1.424 2.6088v7.9465h5.318s0-6.1604 0-7.293c0-1.2798.521-3.2623 1.634-3.2623 1.203 0 1.416 1.2852 1.416 2.6088v7.9433h5.223s0-5.8053 0-8.616c0-3.8235-1.343-6.3727-4.858-6.3727z"/><path d="m82.9963 30.2955c-1.2667.2937-1.9234-.098-1.9234-.9409 0-1.1548 1.1896-1.6172 2.8877-1.6172.7485 0 1.4523.065 1.4523.065 0 .4942-1.0686 2.1809-2.4166 2.4931zm1.2896-11.5611c-4.0577 0-6.9692 1.4978-6.9692 1.4978v4.4027s3.2153-1.8561 5.8236-1.8561c2.082 0 2.3378 1.1274 2.2429 2.0631 0 0-.6002-.1596-2.4327-.1596-4.3173 0-6.4969 1.9701-6.4969 5.1291 0 2.9965 2.4495 4.2491 4.5131 4.2491 3.0114 0 4.3351-2.0317 4.7419-2.9957.2823-.6687.3337-1.1194.5873-1.1194.2889 0 .1917.3233.1777.9889-.0245 1.1655.0301 2.0466.2142 2.7888h3.9925v-7.2105c0-4.5019-1.5864-7.7782-6.3944-7.7782z"/><path d="m99.4059 33.7228h5.2971v-19.09h-5.2971z"/><path d="m110.534 26.3973c0-1.3174 1.219-2.5159 3.457-2.5159 2.438 0 4.399 1.1787 4.839 1.4464v-5.0956s-1.549-1.4978-5.358-1.4978c-4.014 0-7.357 2.3585-7.357 7.4349 0 5.0763 3.034 7.8912 7.347 7.8912 3.368 0 5.377-1.8584 5.377-1.8584v-4.84c-.636.357-2.406 1.5904-4.824 1.5904-2.561 0-3.481-1.1825-3.481-2.5552z"/><path d="m129.561 18.7342c-3.067 0-4.233 2.9177-4.469 3.4244-.235.5064-.352.7979-.545.7917-.334-.011-.101-.6219.029-1.0176.247-.7473.77-2.7082.77-5.1182 0-1.6346-.22-2.1817-.22-2.1817h-4.573v19.0901h5.297s0-6.1023 0-7.2895c0-1.1876.472-3.2625 1.806-3.2625 1.106 0 1.452.8223 1.452 2.4782v8.0738h5.297s0-4.4653 0-7.7551c0-3.761-.621-7.2336-4.844-7.2336z"/><path d="m136.126 19.0859v14.6347h5.298v-14.6347s-.891.5229-2.643.5229c-1.753 0-2.655-.5229-2.655-.5229z"/><path d="m138.76 14.4805c-1.791 0-3.243.9513-3.243 2.1249 0 1.1734 1.452 2.1247 3.243 2.1247 1.79 0 3.242-.9513 3.242-2.1247 0-1.1736-1.452-2.1249-3.242-2.1249z"/><path d="m92.3947 19.0859v14.6347h5.297v-14.6347s-.8903.5229-2.6431.5229c-1.7526 0-2.6539-.5229-2.6539-.5229z"/><path d="m95.0274 14.4805c-1.7907 0-3.2425.9513-3.2425 2.1249 0 1.1734 1.4518 2.1247 3.2425 2.1247 1.7908 0 3.2426-.9513 3.2426-2.1247 0-1.1736-1.4518-2.1249-3.2426-2.1249z"/><path d="m174.222 30.57c-1.215 0-2.109-1.5469-2.109-3.7022 0-2.0931.919-3.7014 2.067-3.7014 1.475 0 2.103 1.3573 2.103 3.7014 0 2.4386-.579 3.7022-2.061 3.7022zm1.454-11.8434c-2.723 0-3.971 2.0501-4.513 3.2179-.359.7717-.341.9981-.602.9981-.379 0-.065-.6197.106-1.3482.335-1.4344.08-2.5306.08-2.5306h-3.881v18.6979h5.297s0-3.0597 0-5.9282c.627 1.0676 1.788 2.2084 3.578 2.2084 3.831 0 5.759-3.2539 5.759-7.6504 0-4.9829-2.308-7.6649-5.824-7.6649z"/><path d="m34.5896 23.1571c.3562-.0426.6975-.0446 1.0111 0 .1815-.4179.2127-1.1384.0494-1.9229-.2427-1.1662-.571-1.8719-1.2498-1.7621-.6786.1099-.7037.9548-.461 2.121.1365.6559.3795 1.2166.6503 1.564z"/><path d="m28.763 24.0786c.4855.214.784.3558.9007.2318.0751-.0772.0528-.2246-.0631-.4149-.2397-.3928-.7328-.7911-1.2558-1.0149-1.0696-.4623-2.3453-.3085-3.3295.4014-.3247.2391-.6327.5701-.5887.7712.0143.065.0629.114.1769.13.268.0308 1.2039-.4445 2.2822-.5107.761-.0468 1.3916.1922 1.8773.4061z"/><path d="m27.7863 24.6377c-.6326.1002-.9815.3097-1.2054.5043-.191.1676-.3092.353-.3082.4835.0004.062.0273.0978.0484.1158.0289.0254.063.0396.104.0396.1429 0 .4628-.1291.4628-.1291.8802-.3162 1.4608-.2778 2.0361-.212.318.0358.4682.0556.538-.0538.0207-.0314.0456-.0994-.018-.203-.1482-.2413-.7868-.6491-1.6578-.5453"/><path d="m32.6221 26.6934c.4294.2118.9021.1286 1.0562-.1858.1538-.3143-.0696-.7409-.4991-.953-.4294-.2116-.9021-.1286-1.0561.1858-.1538.3145.0695.741.499.953z"/><path d="m35.3828 24.2696c-.3488-.006-.6381.3787-.6463.8589-.0082.4805.2682.8746.617.8806.3489.006.6384-.3787.6463-.859.0082-.4804-.2681-.8747-.617-.8805z"/><path d="m11.9499 32.9311c-.0867-.1092-.2293-.076-.3674-.0436-.0964.0226-.2057.048-.3254.046-.2566-.0051-.4739-.115-.5959-.3033-.159-.245-.1498-.6104.0257-1.0285.0236-.0566.0515-.1192.0819-.1874.2797-.6304.748-1.6853.2223-2.6904-.3958-.7566-1.04117-1.2278-1.81714-1.3266-.74494-.0949-1.5119.1824-2.0011.7243-.77178.8549-.8924 2.0183-.74314 2.4293.05472.1505.14023.1921.20244.2007.13126.0176.32544-.0782.44709-.4069.00869-.0235.02027-.0602.03478-.1068.05428-.1736.15518-.4971.32048-.7563.19931-.3127.50975-.5279.87412-.6063.37122-.0798.75062-.0086 1.0682.2002.54073.355.74887 1.0201.51808 1.6548-.1193.3283-.31317.9558-.27035 1.4717.08638 1.0436.72574 1.4628 1.30024 1.5074.5586.021.9489-.2936 1.0477-.5238.0583-.1361.0091-.2189-.0225-.2545"/><path d="m17.2599 13.7606c1.8217-2.1135 4.0643-3.95096 6.0732-4.98271.0695-.03584.1432.04003.1056.10842-.1596.29004-.4666.91114-.5641 1.38219-.0151.0734.0644.1286.1262.0864 1.2497-.8553 3.4239-1.77184 5.3309-1.88966.0819-.0051.1216.10041.0564.15062-.2901.22344-.6073.53248-.839.84513-.0394.05319-.0022.12982.0638.13022 1.339.00958 3.2267.48009 4.4571 1.17299.0833.0468.0239.2086-.0691.1872-1.8616-.4282-4.9088-.7533-8.0741.0218-2.8259.6922-4.9827 1.7605-6.5562 2.9095-.0795.0582-.175-.0472-.1107-.122zm9.073 20.478c.0002.0004.0004.0011.0005.0011.0004.0006.0006.0017.0012.0023-.0006-.0012-.0012-.0023-.0017-.0034zm7.5125.8903c.054-.0227.0912-.0846.0849-.146-.0076-.0756-.0748-.1306-.1501-.1228 0 0-3.8877.5776-7.5603-.7721.4001-1.3054 1.4637-.8342 3.0715-.7038 2.898.1735 5.4951-.2516 7.4147-.8049 1.6634-.479 3.8479-1.424 5.5448-2.7687.5723 1.2623.7744 2.6513.7744 2.6513s.443-.0794.8132.1492c.3499.2162.6065.6655.4311 1.8273-.3568 2.1705-1.2756 3.9321-2.8198 5.5527-.9402 1.0159-2.0814 1.8993-3.3871 2.5416-.6936.3656-1.4319.6821-2.2119.9377-5.8218 1.9091-11.781-.1897-13.7019-4.6967-.1533-.3389-.2829-.6935-.3851-1.0646-.8187-2.9701-.1238-6.5333 2.0486-8.7763.0002-.0002-.0002-.0012 0-.0012.1339-.1428.2706-.311.2706-.5226 0-.1771-.112-.3639-.2092-.4963-.7601-1.1068-3.3927-2.9929-2.8643-6.6428.3795-2.6222 2.6635-4.4689 4.793-4.3595.1799.0094.3602.0204.5397.031.9229.055 1.7279.1738 2.4876.2056 1.2715.0553 2.4149-.1304 3.769-1.2631.4568-.3823.823-.7136 1.4428-.819.0652-.0112.2271-.0696.5511-.0542.3305.0176.6453.1088.928.2979 1.0858.7253 1.2396 2.482 1.296 3.7671.0321.7336.1205 2.5084.1506 3.0179.0691 1.165.3741 1.3292.9912 1.5332.347.1149.6692.2003 1.1439.3341 1.4371.4051 2.2892.8161 2.8261 1.344.3204.3299.4694.6805.5154 1.0148.1694 1.2412-.9599 2.7744-3.9491 4.1676-3.2678 1.5226-7.232 1.9082-9.971 1.602-.21-.0233-.9571-.1083-.9597-.1088-2.1909-.2962-3.4407 2.5466-2.1258 4.4943.8475 1.2552 3.1558 2.0722 5.4653 2.0726 5.2953.0005 9.3653-2.2698 10.8793-4.2305.0454-.0586.0498-.065.1211-.1734.0745-.1127.0132-.1749-.0797-.1111-1.237.8498-6.7311 4.2235-12.608 3.2085 0 0-.714-.1178-1.3659-.3724-.518-.2023-1.6022-.7032-1.7339-1.8199 4.7426 1.4726 7.7289.0804 7.7289.0804zm-26.04965-11.3163c-1.6494.322-3.10315 1.2606-3.99205 2.557-.53138-.4449-1.52124-1.3062-1.69602-1.6419-1.419271-2.7056 1.54885-7.9662 3.6223-10.937 5.12422-7.34197 13.14992-12.899223 16.86512-11.89087.6041.17163 2.6043 2.50019 2.6043 2.50019s-3.7136 2.06892-7.1577 4.95275c-4.6406 3.58753-8.14596 8.80173-10.24595 14.45983zm2.77165 12.4159c-.2497.0428-.5043.0598-.76115.0536-2.48172-.0668-5.16244-2.3101-5.42883-4.9704-.29442-2.9404 1.20199-5.2034 3.85149-5.74.31675-.0641.69956-.1011 1.11234-.0795 1.48445.0817 3.67215 1.226 4.17185 4.4731.4427 2.8757-.2603 5.8033-2.9457 6.2632zm33.6184-5.2068c-.0213-.0754-.1598-.5837-.3501-1.1961-.1902-.6128-.3873-1.0438-.3873-1.0438.7633-1.1474.7768-2.1734.6754-2.7547-.1084-.7203-.407-1.3342-1.0091-1.9687s-1.8333-1.2844-3.5638-1.7722c-.1978-.0558-.8505-.2357-.9079-.2531-.0045-.0376-.0478-2.1491-.087-3.0555-.0287-.6553-.0847-1.6782-.4009-2.6858-.3767-1.3638-1.0332-2.5572-1.8524-3.3207 2.261-2.3531 3.6726-4.94553 3.6692-7.16947-.0066-4.27685-5.238-5.570852-11.6848-2.89064-.0068.00278-1.3562.57729-1.3659.58209-.0062-.0058-2.4695-2.43257-2.5065-2.46498-7.3503-6.43698-30.33166 19.2101-22.98409 25.4391l1.60574 1.3658c-.41651 1.0834-.58018 2.3246-.44648 3.6594.1716 1.7142 1.05234 3.3575 2.47987 4.6271 1.35514 1.2056 3.13684 1.9685 4.86585 1.9671 2.85921 6.6156 9.39231 10.674 17.05231 10.9024 8.2168.2451 15.1143-3.6261 18.0045-10.5798.1891-.488.9914-2.687.9914-4.628 0-1.951-1.0985-2.7595-1.798-2.7595z"/></g></svg>