<svg fill="none" height="30" viewBox="0 0 30 30" width="30" xmlns="http://www.w3.org/2000/svg"><g fill="#555"><path d="m24.48 10.5779c.0137-.2044.02-.3941.02-.5779 0-5.23828-4.2617-9.5-9.5-9.5-4.812 0-8.79712 3.52173-9.41284 8.25-3.25854.85767-5.58716 3.8501-5.58716 7.25 0 3.7087 2.76392 6.9006 6.43115 7.4251.35718.0498.7168.0749 1.06885.0749h2c.27612 0 .5-.2239.5-.5s-.22388-.5-.5-.5h-2c-.30615 0-.61939-.022-.9292-.0649-3.17578-.4544-5.5708-3.2207-5.5708-6.4351 0-3.0522 2.16528-5.7253 5.14819-6.35571.21436-.04541.37428-.22486.39454-.44312.40796-4.39038 4.04367-7.70117 8.45727-7.70117 4.687 0 8.5 3.81299 8.5 8.5 0 .2876-.0183.5952-.0574.9678-.0141.1347.0271.2693.114.3733.087.1037.2122.1679.3472.1777 2.8577.207 5.0962 2.6147 5.0962 5.4812 0 3.0327-2.4673 5.5-5.5 5.5h-3c-.2761 0-.5.2239-.5.5s.2239.5.5.5h3c3.5842 0 6.5-2.9158 6.5-6.5 0-3.2175-2.3865-5.946-5.52-6.4221z"/><path d="m18.5 14.5c-.2761 0-.5.2239-.5.5v12.793l-2.6465-2.6465c-.1953-.1953-.5117-.1953-.707 0s-.1953.5117 0 .707l3.4998 3.4999c.0461.0461.1014.0826.1626.108.0612.0253.126.0386.1911.0386s.1299-.0133.1911-.0386c.0612-.0254.1165-.0619.1626-.108l3.4998-3.4999c.1953-.1953.1953-.5117 0-.707s-.5117-.1953-.707 0l-2.6465 2.6465v-12.793c0-.2761-.2239-.5-.5-.5z"/><path d="m11.5 29.4993c.2761 0 .5-.2239.5-.5v-12.793l2.6465 2.6465c.0976.0977.2256.1465.3535.1465s.2559-.0488.3535-.1465c.1953-.1953.1953-.5117 0-.707l-3.4998-3.4998c-.0461-.0462-.1014-.0827-.1626-.1081-.1223-.0505-.2599-.0505-.3822 0-.0612.0254-.1165.0619-.1626.1081l-3.49981 3.4998c-.19532.1953-.19532.5117 0 .707.19531.1953.51172.1953.70703 0l2.64648-2.6465v12.793c0 .2761.2239.5.5.5z"/></g></svg>