<svg fill="none" height="49" viewBox="0 0 137 49" width="137" xmlns="http://www.w3.org/2000/svg"><path d="m16.2551 48.0432c-4.0004-.1579-7.27333-1.2454-9.83249-3.2653-.48841-.3858-1.65223-1.5428-2.04268-2.0308-1.03777-1.2964-1.74332-2.5582-2.21391-3.9581-1.448094-4.3092-.70281-9.964 2.13172-16.17 2.42695-5.3131 6.17186-10.5826 12.70536-17.88087.9624-1.07391 3.8285-4.214692 3.847-4.214692.0068 0-.1494.268824-.346.596172-1.6988 2.82703-3.1523 6.15698-3.9442 9.03979-1.272 4.6258-1.1186 8.5954.4494 11.6736 1.0816 2.1206 2.9359 3.9574 5.021 4.9728 3.6504 1.777 8.9948 1.9239 15.5214.4301.4494-.1034 22.716-5.9759 49.4817-13.0503 26.7656-7.07506 48.6686-12.8591 48.6716-12.85434.008.00613-62.1839 26.44574-94.4686 40.16234-5.1129 2.1716-6.4801 2.7202-8.8838 3.5586-6.1445 2.1437-11.6484 3.1666-16.0975 2.991z" fill="#555"/></svg>