<svg fill="none" height="30" viewBox="0 0 30 30" width="30" xmlns="http://www.w3.org/2000/svg"><g fill="#555"><path d="m13.001 3.5c-.2761 0-.5.22388-.5.5v7.0708c-.6994.1818-1.2472.7296-1.429 1.429h-5.07078c-.27612 0-.5.2238-.5.5 0 .2761.22388.5.5.5h5.07078c.2236.8601.9998 1.5 1.929 1.5 1.1028 0 2-.8973 2-2 0-.9292-.6399-1.7054-1.5-1.929v-7.0708c0-.27612-.2239-.5-.5-.5zm1 9.4998c0 .5515-.4485 1-1 1s-1-.4485-1-1c0-.5516.4485-1 1-1s1 .4484 1 1z"/><path d="m29.5 13h-12.5007c-.2762 0-.5.2239-.5.5v16c0 .2761.2238.5.5.5h12.5007c.2761 0 .5-.2239.5-.5v-16c0-.2761-.2239-.5-.5-.5zm-.5 16h-11.5007v-15h11.5007z"/><path d="m19.4954 26.9961h2c.2761 0 .5-.2239.5-.5v-2c0-.2761-.2239-.5-.5-.5h-2c-.2762 0-.5.2239-.5.5v2c0 .2761.2238.5.5.5zm.5-2h1v1h-1z"/><path d="m19.4954 22.9961h2c.2761 0 .5-.2239.5-.5v-2c0-.2761-.2239-.5-.5-.5h-2c-.2762 0-.5.2239-.5.5v2c0 .2761.2238.5.5.5zm.5-2h1v1h-1z"/><path d="m19.4954 18.9922h2c.2761 0 .5-.2239.5-.5v-2c0-.2761-.2239-.5-.5-.5h-2c-.2762 0-.5.2239-.5.5v2c0 .2761.2238.5.5.5zm.5-2h1v1h-1z"/><path d="m23.499 19h3.4998c.2761 0 .5-.2239.5-.5s-.2239-.5-.5-.5h-3.4998c-.2761 0-.5.2239-.5.5s.2239.5.5.5z"/><path d="m23.499 23.0039h3.4998c.2761 0 .5-.2239.5-.5s-.2239-.5-.5-.5h-3.4998c-.2761 0-.5.2239-.5.5s.2239.5.5.5z"/><path d="m23.499 27.0078h3.4998c.2761 0 .5-.2239.5-.5s-.2239-.5-.5-.5h-3.4998c-.2761 0-.5.2239-.5.5s.2239.5.5.5z"/><path d="m13 26c.6968 0 1.3965-.0559 2.0798-.1663.2725-.0441.4578-.3007.4139-.5734-.0442-.2727-.3001-.46-.5735-.4139-.6307.1018-1.2766.1536-1.9202.1536-6.61694 0-12-5.3833-12-12s5.38306-12 12-12c6.0747 0 11.1943 4.5393 11.9084 10.5588.0328.2747.282.4683.5555.4378.2744-.0327.4702-.2813.4377-.5554-.7739-6.5225-6.3205-11.4412-12.9016-11.4412-7.16821 0-13 5.83179-13 13 0 7.1682 5.83179 13 13 13z"/></g></svg>