<svg fill="none" height="49" viewBox="0 0 60 49" width="60" xmlns="http://www.w3.org/2000/svg"><path d="m18.8693 49c22.6426 0 35.025-18.8497 35.025-35.1956 0-.5354-.0109-1.0684-.0348-1.5989 2.4036-1.7461 4.4927-3.92504 6.1405-6.40548-2.2057.98518-4.5793 1.64838-7.0692 1.94743 2.5415-1.53142 4.4927-3.95395 5.4132-6.841863-2.3784 1.416873-5.0124 2.446653-7.8168 3.002633-2.2464-2.40437-5.4444-3.90822-8.9856-3.90822-6.798 0-12.3107 5.53973-12.3107 12.3682 0 .9707.108 1.9149.3192 2.8206-10.2311-.5173-19.3032-5.4396-25.37481-12.92423-1.0572 1.82804-1.66679 3.95152-1.66679 6.2173 0 4.29163 2.17326 8.08023 5.47804 10.29663-2.01963-.0627-3.91686-.6198-5.57509-1.5471-.00181.0519-.00182.1025-.00182.158 0 5.9907 4.24324 10.9925 9.87587 12.1259-1.0344.2833-2.1227.4353-3.24595.4353-.79199 0-1.56361-.0784-2.3136-.2231 1.56718 4.915 6.11165 8.4916 11.49955 8.5915-4.2133 3.3185-9.52078 5.2949-15.28916 5.2949-.9924 0-1.97279-.0567-2.93634-.1712 5.44805 3.509 11.9171 5.5565 18.8699 5.5565" fill="#555"/></svg>