<svg height="438.75969" viewBox="0 0 400 438.75968992" width="400" xmlns="http://www.w3.org/2000/svg"><g fill-rule="evenodd"><path d="m194.419 9.518c-8.905.953-5.87-.57-51.473 25.837-20.551 11.9-53.76 31.125-73.799 42.723-20.038 11.597-37.556 21.792-38.927 22.655-6.97 4.384-12.915 12.25-15.475 20.474-1.839 5.912-1.746.315-1.652 98.619l.085 90.058 12.972-19.934 12.972-19.935-.104-70.138-.103-70.138 1.144-2.311c2.115-4.272-9.059 2.53 90.639-55.175 29.845-17.275 56.147-32.499 58.449-33.833 6.104-3.535 9.886-4.214 13.811-2.477.786.347 34.868 19.856 75.739 43.352 80.006 45.994 76.241 43.706 78.256 47.565l1.031 1.977.091 87.132c.098 93.489.166 89.389-1.536 92.596-1.436 2.708-2.021 3.114-16.694 11.589-7.589 4.383-14.496 8.432-15.349 8.998-1.675 1.111-12.543 7.394-14.574 8.426-1.902.967-52.339 30.204-52.868 30.647-.396.332-51.559 30.052-53.583 31.126-1.327.704-4.265.993-6.488.638-1.967-.315-3.996-1.43-34.162-18.782-25.949-14.927-32.142-18.371-32.448-18.044-.521.554-12.932 21.672-12.803 21.782.232.198 62.292 35.843 64.477 37.033 7.847 4.273 19.039 5.181 28.341 2.298 2.061-.639 15.744-8.445 81.051-46.243l78.571-45.475 2.692-2.636c5.512-5.395 9.055-11.949 10.781-19.94.748-3.467.862-180.8.118-184.556-1.884-9.513-7.762-18.804-15.229-24.075-3.231-2.281-153.038-88.29-155.469-89.261-5.529-2.206-12.649-3.197-18.484-2.572" fill="#69b2e5"/><path d="m157.255 130.877c-17.295 1.327-31.15 7.193-38.576 16.333-.935 1.151-19.837 30.209-42.005 64.573s-45.558 70.547-51.978 80.407l-11.673 17.926.011 7.345.012 7.345 20.09 11.551c11.049 6.352 20.236 11.55 20.415 11.55.31 0 135.425-216.408 135.227-216.588-.132-.119-24.492-.792-26.607-.734-.938.025-3.151.157-4.916.292m66.502.592-17.329.159-68.216 112.558c-37.519 61.907-68.233 112.729-68.253 112.939-.046.477 47.283 27.774 47.598 27.452.159-.164 136.622-231.504 148.705-252.096l.774-1.318-12.976.073c-7.136.041-20.773.146-30.303.233" fill="#fbfbfb"/><path d="m194.264 35.9c-1.186.432-94.496 54.279-143.491 82.805-8.833 5.142-9.542 5.776-11.078 9.88-.623 1.664-.626 2.108-.548 71.33l.078 69.656 38.585-59.824c21.222-32.904 39.169-60.592 39.881-61.53 6.59-8.675 17.768-14.345 33.162-16.821 4.472-.719 32.123-.951 36.647-.307l1.608.229-67.577 108.37c-37.168 59.603-67.575 108.44-67.572 108.527.013.336 15.624 9.087 15.729 8.816.062-.158 30.857-51.008 68.435-113l68.322-112.713 30.3-.079c24.825-.065 30.271-.006 30.144.326-.086.222-30.74 52.282-68.12 115.687-37.381 63.406-67.912 115.336-67.847 115.401.808.808 63.722 36.621 64.882 36.933 1.75.47 4.42.527 6.129.13 2.623-.609 55.12-31.441 54.69-32.119-.217-.341-13.127-20.61-28.69-45.043l-28.296-44.422 17.286-29.376c9.508-16.157 17.44-29.547 17.627-29.756.256-.286 9.36 13.837 36.771 57.045 20.037 31.583 36.993 58.298 37.679 59.366l1.248 1.942 7.33-4.253c4.116-2.388 7.245-4.391 7.136-4.568-.106-.173-17.955-29.04-39.663-64.147-21.708-35.108-39.47-63.97-39.47-64.137 0-.326 30.441-52.09 30.554-51.956.037.044 18.378 28.615 40.759 63.491 22.38 34.876 40.817 63.545 40.971 63.709.168.177.248-29.216.2-72.885l-.081-73.182-1.144-2.309c-.63-1.271-1.746-2.893-2.481-3.605-1.105-1.072-143.574-83.429-150.793-87.169-2.091-1.083-6.913-1.312-9.302-.442" fill="#2c344c"/><path d="m260.775 174.137c-8.271 14.067-15.039 25.816-15.039 26.109 0 .995 79.024 128.454 79.524 128.266 1.416-.534 28.548-16.484 29.369-17.265 3.206-3.051 3.511-4.912 3.511-21.463v-13.752l-40.867-63.654c-22.477-35.009-41-63.691-41.163-63.736s-7.063 11.428-15.335 25.495m-27.984 47.776c-1.095 1.847-8.999 15.254-17.566 29.792l-15.575 26.434 28.625 44.956c18.1 28.426 28.769 44.903 29.018 44.814.659-.238 51.98-29.985 52.407-30.377.307-.281-73.374-117.345-74.821-118.875-.054-.057-.993 1.409-2.088 3.256" fill="#3288c5"/><path d="m197.442 35.263c.554.069 1.461.069 2.015 0 .555-.069.101-.125-1.007-.125-1.109 0-1.562.056-1.008.125m156.046 87.315c0 .053.454.506 1.008 1.007l1.008.911-.911-1.008c-.849-.939-1.105-1.15-1.105-.91m-195.426 8.183c.384.074 1.012.074 1.395 0 .384-.073.07-.134-.697-.134-.768 0-1.082.061-.698.134m12.558.01c.81.063 2.136.063 2.946 0 .81-.064.147-.117-1.473-.117s-2.283.053-1.473.117m-131.71 38.066c0 20.977.037 29.604.082 19.172.045-10.433.045-27.596 0-38.14s-.082-2.009-.082 18.968m143.493-37.756c.81.064 2.136.064 2.946 0s.147-.117-1.473-.117-2.283.053-1.473.117m24.001.314c-.13.211 12.778.208 28.325-.007 3.325-.046-1.655-.116-11.067-.155-9.413-.038-17.179.034-17.258.162m-7.877 268.819c.299.078.787.078 1.085 0 .299-.078.055-.142-.542-.142s-.841.064-.543.142" fill="#6c7788"/></g></svg>