<svg fill="none" height="13" viewBox="0 0 7 13" width="7" xmlns="http://www.w3.org/2000/svg"><path d="m1.509 12.274v-1.274h-1.339v-9.282h1.339v-1.313001h.871v1.313001h.026c.30333 0 .58067.013.832.039v-1.352001h.871v1.495001c.55467.13867.97067.38133 1.248.728.286.34667.429.82767.429 1.443 0 .52867-.09533.975-.286 1.339s-.46367.585-.819.663v.065c.25133.06067.47667.169.676.325s.35967.38133.481.676.182.68467.182 1.17c0 .65867-.169 1.209-.507 1.651-.338.4333-.806.7323-1.404.897v1.417h-.871v-1.274c-.078 0-.16033 0-.247 0h-.611v1.274zm.624-6.877h.494c.43333 0 .73233-.091.897-.273s.247-.44633.247-.793c0-.35533-.09967-.611-.299-.767s-.51567-.234-.949-.234h-.39zm0 1.56v2.418h.637c.45067 0 .76267-.11267.936-.338.182-.234.273-.54167.273-.923 0-.34667-.091-.624-.273-.832-.182-.21667-.51567-.325-1.001-.325z" fill="#8e9aa3"/></svg>