<svg viewBox="0 0 229.53 341.57" xmlns="http://www.w3.org/2000/svg"><g fill="#000000"><path d="m219.64 133.42 54.89 28.16c15 7.67 17.17 28.51 4.93 46.55l-126.68-65.44c17.3-10.26 51.75-17.02 66.86-9.27z" transform="translate(-68.1 -10.25)"/><path d="m68.14 122v157.74h42.58v-238.67l-12.72 10.14c-18.5 14.79-29.86 41.67-29.86 70.79z" transform="translate(-68.1 -10.25)"/><path d="m77 254.86c-12.46 13.66-11.3 32.57 2.07 43.84v-42.46z" transform="translate(-68.1 -10.25)"/><path d="m79.05 256.24v42.46a34.49 34.49 0 0 0 2.95 2.3l59.22 39.79a67.05 67.05 0 0 0 56.61 8.08l12.9-4.09z" transform="translate(-68.1 -10.25)"/><path d="m99.86 161.59 58.4-10.69c.63.26 1.24.54 1.85.83s1.2.6 1.78.92l65 35.83c17.89 9.86 25.85 25.75 20.93 41.78l-3.38 11z" transform="translate(-68.1 -10.25)"/><path d="m36.46 167.99-36.46 19.25v78.81l36.79-19.79v-78.27z"/></g><path d="m104 25.81v236.86a18.77 18.77 0 0 0 4.25 11.66 27.84 27.84 0 0 0 4.74 4.24 49.43 49.43 0 0 0 7.53 5.54v-257.06z" fill="none" transform="translate(-68.1 -10.25)"/><path d="m118.61 90.7v69.3c0 7.25 10.49 13.13 23.43 13.13h8.56v-90.71z" fill="none" transform="translate(-68.1 -10.25)"/><path d="m150.61 249.54v32.17l-7.59.08c-2.18 0-5.47.62-7.15-.33-1.12-.65-1.74-.37-2.94-.92a23.08 23.08 0 0 1 -3.64-2.66 46.9 46.9 0 0 0 6.7 5.32l81.53 53.38 23.12-28.09z" fill="#000000" transform="translate(-68.1 -10.25)"/><path d="m135.87 281.46c1.68 1 5 .33 7.15.33l7.59-.08v-37.32-234.14l-34.34 26.92v206.38c0 7.61.28 15.9 2.23 22.11a16.77 16.77 0 0 0 2.33 4.25 16.56 16.56 0 0 0 3.36 3.42c1.52 1.3 2.65 2.38 4 3.62.3.27.68.59 1.08.93a23.08 23.08 0 0 0 3.64 2.66c1.22.55 1.84.27 2.96.92z" fill="#000000" transform="translate(-68.1 -10.25)"/><path d="m48.67 159.3v79.97l33.42-20.08v-40.54l-32.9-19.66z" fill="#000000"/><path d="m297.63 261.62v-68.47c0-18.66-18-33.78-40.28-33.78l.43 158.29c17.5-9.56 39.85-37.2 39.85-56.04z" fill="#000000" transform="translate(-68.1 -10.25)"/><path d="m82.51 234.14v5.16" fill="none"/><path d="m247.3 291.52v-70.15c0-7.17.63-12.24-3.47-17.76-6.82-9.21-21.39-16.86-34.49-16.86v158.48l11.34-6.73a54.62 54.62 0 0 0 26.62-46.98z" fill="#000000" transform="translate(-68.1 -10.25)"/><path d="m158 144.68c10.43-10.28 23.06-16.43 35.27-18.19 13.46-1.93 26.42 1.47 35.4 10.59" fill="none" transform="translate(-68.1 -10.25)"/><path d="m179.52 313.85 12.47-14.03 2.54-4.33 6.35 3.61-7.41 5.75z" fill="#000000"/><path d="m183.73 311.73 5.34-14.46.75-4.18 5.22 1.66-3.78 6.42z" fill="#000000"/><path d="m167.1 257.33-14.39 10.28" fill="none"/><path d="m118.45 75.78 42.72 1.19" fill="none"/><path d="m151.83 144.16a20.87 20.87 0 0 0 -5.44.67 26.81 26.81 0 0 0 -5.1 1.54c-2.58 1.28-6 2.33-8.46 3.39-8.85 3.8-16.8 8.84-23 11l14.31-4.4 12.16-3.63 9.64-2 8.55-.12 14.73 1.64c-2.26-3.38-5.51-5.51-9.09-7.42z" fill="none" transform="translate(-68.1 -10.25)"/><path d="m127.82 152.73-35.13 16.46c-9.57 4.48-14.93 13.24-12 19.57l79.37-37.17-5-1.84c-7.19-2.68-17.57-1.55-27.24 2.98z" fill="#000000" transform="translate(-68.1 -10.25)"/><path d="m258.69 204.14a55.93 55.93 0 0 0 -1.2-6.76c-1.74-4.2-5.21-7.87-11-10.38l.94 140.47c8.16-10.63 12.24-26.89 12.13-44.26l-.49-72.42a62.62 62.62 0 0 0 -.38-6.65z" fill="none" transform="translate(-68.1 -10.25)"/><path d="m249.48 188.56a54.55 54.55 0 0 1 4.63 3.67 16.35 16.35 0 0 1 3.59 11.94l-105.34-59.77c11.13-1.15 24.94 2.87 38 10.26l54.3 30.81c1.68.97 3.34 2.01 4.82 3.09z" fill="none" transform="translate(-68.1 -10.25)"/><path d="m81.14 133.66 17.13-.2 4.39.72 2.2-5.61-8.61 1.44z" fill="#000000"/></svg>