<svg fill="none" height="12" viewBox="0 0 12 12" width="12" xmlns="http://www.w3.org/2000/svg"><path d="m6 0c-3.30853 0-6 2.69147-6 6s2.69147 6 6 6 6-2.69147 6-6-2.69147-6-6-6z" fill="#45d763"/><path d="m9.04102 4.72852-3.25003 3.24993c-.09751.09751-.2255.14658-.35349.14658s-.25598-.04907-.35349-.14658l-1.62496-1.62496c-.19556-.19547-.19556-.51151 0-.70698.19546-.19555.51141-.19555.70697 0l1.27148 1.27149 2.89655-2.89645c.19546-.19556.51141-.19556.70697 0 .19546.19546.19546.51141 0 .70697z" fill="#fafafa"/></svg>