<svg enable-background="new 0 0 469.336 469.336" viewBox="0 0 469.336 469.336" xmlns="http://www.w3.org/2000/svg"><path d="m456.836 76.168-64-64.054c-16.125-16.139-44.177-16.17-60.365.031l-286.708 289.537c-1.271 1.282-2.188 2.857-2.688 4.587l-42.666 149.461c-1.063 3.722-.021 7.736 2.719 10.478 2.031 2.033 4.75 3.128 7.542 3.128.979 0 1.969-.136 2.927-.407l149.333-42.703c1.729-.5 3.302-1.418 4.583-2.69l289.323-286.983c8.063-8.069 12.5-18.787 12.5-30.192s-4.437-22.124-12.5-30.193zm-170.847 13.569 39.264 39.264-204.996 204.997-14.712-29.434c-1.813-3.615-5.5-5.896-9.542-5.896h-17.082zm-259.788 353.4 13.894-48.637 34.742 34.742zm123.135-35.177-51.035 14.579-51.503-51.503 14.579-51.035h28.031l18.385 36.771c1.031 2.063 2.708 3.74 4.771 4.771l36.771 18.385v28.032zm21.334-17.543v-17.082c0-4.042-2.281-7.729-5.896-9.542l-29.434-14.712 204.996-204.996 39.264 39.264zm271.114-268.697-47.033 46.613-93.747-93.747 46.582-47.001c8.063-8.063 22.104-8.063 30.167 0l64 64c4.031 4.031 6.25 9.385 6.25 15.083s-2.219 11.052-6.219 15.052z"/></svg>