<svg fill="none" height="12" viewBox="0 0 8 12" width="8" xmlns="http://www.w3.org/2000/svg"><path d="m7.12842 8.40723c0 .26367-.05127.52246-.15381.77636-.10254.24903-.24902.48096-.43945.6958-.18555.21481-.41504.40771-.68848.57861-.26856.1709-.57129.3027-.9082.3955v.9082h-.80567v-.7763c-.06347.0097-.12695.0146-.19043.0146h-.3955v.7617h-.81299v-.8935c-.31739-.0879-.60791-.2149-.87159-.3809-.26367-.166-.49316-.3662-.68847-.60058-.195314-.23926-.346682-.51026-.454103-.81299-.107422-.30762-.161133-.64453-.161133-1.01074h1.384276c0 .30762.06592.60058.19775.8789.13672.27832.33448.50538.59327.68116v-3.28858c-.31739-.10254-.61035-.22217-.87891-.35888-.26855-.13672-.50049-.3003-.6958-.49073-.195313-.19043-.34668-.41259-.454102-.6665s-.161133-.54932-.161133-.88623c0-.3125.053711-.5957.161133-.84961s.256348-.47852.446782-.67383c.19531-.20019.42724-.36621.6958-.49805.26855-.13671.56396-.24169.88623-.31494v-.886227h.81299v.783687h.4248c.05371 0 .10742.00489.16113.01465v-.798337h.80567v.915527c.2832.07324.54687.17822.79101.31494.24414.13184.45899.29541.64453.49072.18555.19043.33692.41016.4541.65918.11719.24903.19288.52491.22706.82764h-1.23047c-.04395-.24902-.1416-.47607-.29297-.68115-.15137-.20996-.34912-.38086-.59326-.5127v3.09815c.71289.24414 1.25488.58105 1.62597 1.01074.37598.42969.56397.95459.56397 1.57471zm-2.99561-1.68457-.58593-.17578v3.37646c.03906.00977.07568.01465.10986.01465h.29297c.05859 0 .11963-.00488.1831-.01465zm0-1.13526c0-.32715-.00244-.65185-.00732-.97412 0-.32226-.00244-.62012-.00733-.89355 0-.27832-.00488-.52491-.01464-.73975-.00489-.21973-.01221-.39062-.02198-.51269h-.03662c-.04883-.00977-.09521-.01709-.13916-.02198-.04394-.00488-.09033-.00732-.13916-.00732h-.21972v2.95166c.08789.03906.18066.07324.27832.10254.09765.02929.20019.06103.30761.09521zm-1.39892-2.95898c-.26368.12695-.45655.30273-.57862.52734-.12207.21973-.1831.46387-.1831.73242 0 .12696.00976.24414.02929.35157.02442.10254.06592.20263.12452.30029.05859.09277.13672.1831.23437.271.09766.083.22217.16601.37354.24902zm2.90771 5.68359c0-.23437-.05371-.44922-.16113-.64453-.10254-.20019-.2832-.3833-.54199-.54932v2.51954c.24902-.15625.42724-.35401.53466-.59327.11231-.23925.16846-.48339.16846-.73242z" fill="#8e9aa3"/></svg>