<svg enable-background="new 0 0 623.3 122.9" viewBox="0 0 123 122" xmlns="http://www.w3.org/2000/svg"><g fill="#fff"><path d="m104.9-408.5c-24-24-62.9-24-86.9 0-24 24-24 62.9 0 86.9s62.9 24 86.9 0 24-62.9 0-86.9"/><path d="m59-355.1.4.1c.6.1 1.3.2 2 .2.6 0 1.3-.1 1.9-.2.8-.2 1.6-.4 2.4-.8.1-.1.2-.1.3-.2.1 0 .2-.1.2-.1l.2-.1c.1 0 .1-.1.2-.1h.1l.2-.2c2.6-1.8 4.1-4.8 4.1-7.9 0-5-3.9-9.2-8.9-9.6h-.3c-.3 0-.5 0-.7 0-.1 0-.1 0-.2 0-2.6.1-4.9 1.2-6.7 3.1-.9.9-1.5 2-1.9 3.2-.4 1-.6 2.1-.6 3.3.1 4.4 3.1 8.2 7.3 9.3m-7.5 31.1c-.3 0-.6 0-.8-.1-10.7-2.9-19.7-9.8-25.3-19.4s-7.1-20.9-4.2-31.6c.4-1.4 1.7-2.4 3.1-2.4.3 0 .6 0 .8.1 1.7.5 2.7 2.2 2.3 3.9l-.1.2c-.3 1.6.7 3.3 2.3 3.7.3.1.5.1.8.1 1.4 0 2.6-.9 3-2.2l.1-.2c.4-1.4 1.7-2.4 3.1-2.4.3 0 .6 0 .8.1 1.7.5 2.7 2.2 2.3 4-1.1 4.1-1 8.4.3 12.5 1.2 3.9 3.5 7.4 6.6 10.2s.1.1.1.1l.1.1c.6.4 1.2.7 1.9.7.9 0 1.8-.4 2.4-1.1 1-1.2 1-2.9.1-4.1l-.1-.1-.1-.1c-3.8-3.1-5.9-7.6-5.9-12.5 0-4.3 1.7-8.3 4.7-11.4l.5-.5c.8-1.3.7-2.9-.4-4-.6-.6-1.4-.9-2.2-.9s-1.5.3-2.1.8h-.1s-.1.1-.1.1c-.6.6-1.4.9-2.3.9s-1.7-.3-2.3-.9-.9-1.4-.9-2.3.3-1.7.9-2.3c5.4-5.4 12.7-8.4 20.4-8.4 5 0 9.9 1.3 14.2 3.7h.1.1.1.1c.4.2.9.3 1.4.3 1.1 0 2.2-.6 2.8-1.6.9-1.5.3-3.5-1.2-4.3-5.3-3-11.3-4.6-17.4-4.6-9.4 0-18.3 3.7-24.9 10.3-.6.6-1.4.9-2.3.9s-1.7-.3-2.3-.9-.9-1.4-.9-2.3.3-1.7.9-2.3c7.9-7.9 18.3-12.2 29.5-12.2 11.1 0 21.6 4.3 29.5 12.2.6.6.9 1.4.9 2.3s-.3 1.7-.9 2.3-1.4.9-2.3.9-1.7-.3-2.3-.9l-.1-.1c-.6-.5-1.3-.8-2.1-.8s-1.6.3-2.2.9c-1.2 1.2-1.2 3.1-.1 4.4l.1.1c1.2 1.3 1.2 3.3 0 4.5-.6.6-1.4.9-2.3.9s-1.7-.3-2.3-.9c-4.2-4.2-9.8-6.5-15.8-6.5-2.5 0-4.9.4-7.2 1.2h-.1c-.1 0-.1 0-.2.1h-.1c-1.6.6-2.3 2.4-1.8 4 .4 1.3 1.6 2.1 3 2.1h.5.1.1c1.8-.7 3.7-1 5.6-1 3.6 0 7 1.1 9.8 3.3 2.7 2.1 4.8 5.1 5.7 8.4v.1.1c0 .1.1.2.1.3.5 1.2 1.7 2 3 2 .3 0 .6 0 .8-.1 1.6-.4 2.6-2 2.3-3.7v-.2c-.5-1.7.6-3.5 2.3-4 .3-.1.6-.1.8-.1 1.5 0 2.7 1 3.1 2.4 1.7 6.2 1.2 12.6-1.2 18.5-2.4 5.7-6.6 10.6-11.9 13.7l-.1.1s0 0-.1 0h-.1c-1.4.9-1.9 2.8-1 4.3.6 1 1.6 1.6 2.7 1.6.6 0 1.1-.1 1.6-.4 13.7-8 20.3-24.2 16.2-39.5-.2-.8-.1-1.7.3-2.5.4-.7 1.1-1.3 2-1.5.3-.1.6-.1.8-.1 1.5 0 2.7 1 3.1 2.4 2.9 10.7 1.4 22-4.2 31.6-5.4 10-14.4 16.9-25.1 19.8-.3.1-.6.1-.8.1-1.5 0-2.7-1-3.1-2.4-.5-1.7.6-3.5 2.3-3.9h.1.2c1.6-.5 2.5-2.2 2.1-3.8-.4-1.4-1.6-2.4-3.1-2.4-.2 0-.4 0-.7.1h-.2c-.3.1-.5.1-.8.1-1.5 0-2.7-1-3.1-2.4-.2-.8-.1-1.7.3-2.5.4-.7 1.1-1.3 2-1.5 4.1-1.1 7.8-3.3 10.7-6.5 2.8-3 4.7-6.8 5.5-10.8v-.1-.1-.1c.2-1.7-.9-3.2-2.5-3.5-.2 0-.4-.1-.6-.1-1.4 0-2.6.9-3 2.2 0 .1-.1.2-.1.3v.1.1.1c0 .1-.1.3-.1.4v.2.1.1c0 .1 0 .1-.1.2v.1c-1.9 6.9-8.3 11.8-15.5 11.8-1.4 0-2.8-.2-4.2-.5l-.5-.1c-.1 0-.2 0-.3 0-1.4 0-2.7 1-3.1 2.3-.4 1.6.5 3.3 2 3.8h.1.1c1.7.5 2.7 2.2 2.3 4-.4 1.4-1.7 2.4-3.1 2.4-.3 0-.6 0-.8-.1-6.2-1.7-11.5-5.2-15.4-10.3-3.8-4.9-5.9-11-6-17.2v-.1-.1-.1c-.1-1.7-1.5-3-3.2-3-1.8 0-3.2 1.4-3.2 3.2.1 15.8 10.8 29.7 26.1 33.8.8.2 1.5.8 2 1.5.4.7.5 1.6.3 2.5-.7 1.3-2 2.3-3.4 2.3"/><path d="m193.9-365.3c0 3.6-1.2 6.6-3.7 9.1s-5.5 3.7-9 3.7h-10.2v-25.5h10.2c3.5 0 6.5 1.2 9 3.7 2.5 2.6 3.7 5.6 3.7 9m1.9 14.6c4-4 6-8.9 6-14.6 0-5.6-2-10.5-6-14.5s-8.9-6-14.6-6h-18v41.1h18c5.7.1 10.5-2 14.6-6m54.6-14.7c0 3.7-1.3 6.9-4 9.6s-5.9 4-9.7 4-7-1.3-9.7-4-4-5.8-4-9.6c0-3.7 1.3-6.8 4-9.3s5.9-3.8 9.7-3.8 7 1.3 9.7 3.9c2.7 2.5 4 5.6 4 9.2m1.5 15.1c4.2-4.2 6.4-9.3 6.4-15.2 0-5.7-2.1-10.6-6.4-14.8s-9.3-6.3-15-6.3c-6.1 0-11.1 2-15.3 6.1-4.1 4.1-6.2 9.1-6.2 15.1 0 5.8 2.1 10.8 6.3 15s9.3 6.3 15.1 6.3c5.8.2 10.8-1.9 15.1-6.2m56.6 5.7h7.8v-41.1h-7.4l-14.8 25.9-15-25.9h-7.2v41.1h7.7v-24.4l14.5 24.4 14.4-24.4zm58.1-24.7c-1 1-2.2 1.5-3.7 1.5h-17.3v-10.1h17.3c1.4 0 2.6.5 3.7 1.5 1 1 1.5 2.2 1.5 3.5 0 1.4-.5 2.6-1.5 3.6m9.9 24.7-9.4-16.1c2.7-.9 4.8-2.5 6.4-4.7s2.4-4.7 2.4-7.4c0-3.5-1.3-6.5-3.8-9s-5.6-3.8-9.2-3.8h-25.1v41.1h7.8v-15.5h12.7l9.1 15.4zm43-16.9h-13.5l6.8-14.3zm7.9 16.9h8.7l-19.4-41.1h-7.8l-19.4 41.1h8.6l4.3-9h20.9zm21.3 0h7.8v-41.1h-7.8zm59.9-20.7c0 3.6-1.2 6.6-3.7 9.1s-5.5 3.7-9 3.7h-10.2v-25.5h10.2c3.5 0 6.5 1.2 9 3.7 2.5 2.6 3.7 5.6 3.7 9m1.9 14.6c4-4 6-8.9 6-14.6 0-5.6-2-10.5-6-14.5s-8.9-6-14.6-6h-18v41.1h18c5.7.1 10.5-2 14.6-6m19.9 6.1h33.3v-7.8h-25.5v-10.1h14.4v-8h-14.4v-7.5h24.9v-7.8h-32.7zm84.5-28.3c0 1.4-.5 2.6-1.5 3.6s-2.2 1.5-3.6 1.5h-17.3v-10.1h17.3c1.4 0 2.6.5 3.6 1.5s1.5 2.1 1.5 3.5m5.4 7.4c1.6-2.2 2.4-4.7 2.4-7.4 0-3.5-1.3-6.5-3.8-9s-5.6-3.8-9.2-3.8h-25.1v41.1h7.8v-15.4h12.7l9.1 15.4h9.1l-9.4-16.1c2.7-1 4.8-2.6 6.4-4.8"/><path d="m62.2 52.5h-.3c-.3 0-.5 0-.7 0-.1 0-.1 0-.2 0-2.6.1-4.9 1.2-6.7 3.1-.9.9-1.5 2-1.9 3.2-.4 1-.6 2.1-.6 3.3 0 4.4 3 8.3 7.3 9.4l.4.1c.6.1 1.3.2 2 .2.6 0 1.3-.1 1.9-.2.8-.2 1.6-.4 2.4-.8.1-.1.2-.1.3-.2.1 0 .2-.1.2-.1l.2-.1c.1 0 .1-.1.2-.1h.1l.2-.2c2.6-1.8 4.1-4.8 4.1-7.9 0-5.1-3.9-9.3-8.9-9.7z"/><path d="m104.9 18c-24-24-62.9-24-86.9 0s-24 62.9 0 86.9 62.9 24 86.9 0 24-62.9 0-86.9zm-7.3 64.9c-5.6 9.7-14.6 16.6-25.3 19.4-.3.1-.6.1-.8.1-1.5 0-2.7-1-3.1-2.4-.5-1.7.6-3.5 2.3-3.9h.1.2c1.6-.5 2.5-2.2 2.1-3.8-.4-1.4-1.6-2.4-3.1-2.4-.2 0-.4 0-.7.1h-.2c-.3.1-.5.1-.8.1-1.5 0-2.7-1-3.1-2.4-.2-.8-.1-1.7.3-2.5.4-.7 1.1-1.3 2-1.5 4.1-1.1 7.8-3.3 10.7-6.5 2.8-3 4.7-6.8 5.5-10.8v-.1-.1-.1c.2-1.7-.9-3.2-2.5-3.5-.2 0-.4-.1-.6-.1-1.4 0-2.6.9-3 2.2 0 .1-.1.2-.1.3v.1.1.1c0 .1-.1.3-.1.4v.2.1.1c0 .1 0 .1-.1.2v.1c-1.9 6.9-8.3 11.8-15.5 11.8-1.4 0-2.8-.2-4.2-.5l-.5-.1c-.1 0-.2 0-.3 0-1.4 0-2.7 1-3.1 2.3-.4 1.6.5 3.3 2 3.8h.1.1c1.7.5 2.7 2.2 2.3 4-.4 1.4-1.7 2.4-3.1 2.4-.3 0-.6 0-.8-.1-6.2-1.7-11.5-5.2-15.4-10.3-3.8-4.9-5.9-11-6-17.2v-.1-.1-.1c-.1-1.7-1.5-3-3.2-3-1.8 0-3.2 1.4-3.2 3.2-.2 15.8 10.5 29.7 25.8 33.8.8.2 1.5.8 2 1.5.4.7.5 1.6.3 2.5-.4 1.4-1.7 2.4-3.1 2.4-.3 0-.6 0-.8-.1-10.8-3-19.8-9.9-25.3-19.5-5.6-9.6-7.1-20.9-4.2-31.6.4-1.4 1.7-2.4 3.1-2.4.3 0 .6 0 .8.1 1.7.5 2.7 2.2 2.3 3.9l-.1.2c-.3 1.6.7 3.3 2.3 3.7.3.1.5.1.8.1 1.4 0 2.6-.9 3-2.2l.1-.2c.4-1.4 1.7-2.4 3.1-2.4.3 0 .6 0 .8.1 1.7.5 2.7 2.2 2.3 4-1.1 4.1-1 8.4.3 12.5 1.2 3.9 3.5 7.4 6.6 10.2s.1.1.1.1l.1.1c.6.4 1.2.7 1.9.7.9 0 1.8-.4 2.4-1.1 1-1.2 1-2.9.1-4.1l-.1-.1-.1-.1c-3.8-3.1-5.9-7.6-5.9-12.5 0-4.3 1.7-8.3 4.7-11.4l.5-.5c.8-1.3.7-2.9-.4-4-.6-.6-1.4-.9-2.2-.9s-1.5.3-2.1.8h-.1s-.1.1-.1.1c-.6.6-1.4.9-2.3.9s-1.7-.3-2.3-.9-.9-1.4-.9-2.3.3-1.7.9-2.3c5.4-5.4 12.7-8.4 20.4-8.4 5 0 9.9 1.3 14.2 3.7h.1.1.1.1c.4.2.9.3 1.4.3 1.1 0 2.2-.6 2.8-1.6.9-1.5.3-3.5-1.2-4.3-5.3-3-11.3-4.6-17.4-4.6-9.4 0-18.3 3.7-24.9 10.3-.6.6-1.4.9-2.3.9s-1.7-.3-2.3-.9-.9-1.2-.9-2 .3-1.7.9-2.3c7.9-7.9 18.3-12.2 29.5-12.2 11.1 0 21.6 4.3 29.5 12.2.6.6.9 1.4.9 2.3s-.3 1.7-.9 2.3-1.4.9-2.3.9-1.7-.3-2.3-.9l-.1-.2c-.6-.5-1.3-.8-2.1-.8s-1.6.3-2.2.9c-1.2 1.2-1.2 3.1-.1 4.4l.1.1c1.2 1.3 1.2 3.3 0 4.5-.6.6-1.4.9-2.3.9s-1.7-.3-2.3-.9c-4.2-4.2-9.8-6.5-15.8-6.5-2.5 0-4.9.4-7.2 1.2h-.1c-.1 0-.1 0-.2.1h-.1c-1.6.6-2.3 2.4-1.8 4 .4 1.3 1.6 2.1 3 2.1h.5.1.1c1.8-.7 3.7-1 5.6-1 3.6 0 7 1.1 9.8 3.3 2.7 2.1 4.8 5.1 5.7 8.4v.1.1c0 .1.1.2.1.3.5 1.2 1.7 2 3 2 .3 0 .6 0 .8-.1 1.6-.4 2.6-2 2.3-3.7v-.2c-.5-1.7.6-3.5 2.3-4 .3-.1.6-.1.8-.1 1.5 0 2.7 1 3.1 2.4 1.7 6.2 1.2 12.6-1.2 18.5-2.4 5.7-6.6 10.6-11.9 13.7l-.1.3s0 0-.1 0h-.1c-1.4.9-1.9 2.8-1 4.3.6 1 1.6 1.6 2.7 1.6.6 0 1.1-.1 1.6-.4 13.7-8 20.3-24.2 16.2-39.5-.2-.8-.1-1.7.3-2.5.4-.7 1.1-1.3 2-1.5.3-.1.6-.1.8-.1 1.5 0 2.7 1 3.1 2.4 3 10.7 1.5 22-4 31.6z"/></g></svg>