<svg viewBox="0 0 173.03418 173.03467" xmlns="http://www.w3.org/2000/svg" xmlns:xlink="http://www.w3.org/1999/xlink"><linearGradient id="a" gradientUnits="userSpaceOnUse" x1="39.8514" x2="111.1131" y1="154.59521" y2="83.33351"><stop offset="0" stop-color="#000000"/><stop offset=".08518" stop-color="#000000"/><stop offset=".33554" stop-color="#000000"/><stop offset=".56114" stop-color="#000000"/><stop offset=".75403" stop-color="#000000"/><stop offset=".90662" stop-color="#000000"/><stop offset="1" stop-color="#000000"/></linearGradient><linearGradient id="b" x1="61.92099" x2="133.1827" xlink:href="#a" y1="89.70117" y2="18.43947"/><path d="m180.09125 286.11613a86.51733 86.51733 0 1 1 86.51709-86.51713 86.61523 86.61523 0 0 1 -86.51709 86.51713zm0-170.03467a83.51733 83.51733 0 1 0 83.51709 83.51754 83.61205 83.61205 0 0 0 -83.51709-83.51754z" fill="#000000" transform="translate(-93.57416 -113.08146)"/><path d="m75.482 47.703-52.167 90.356h104.334z" fill="#000000"/><path d="m75.482 47.703-52.167 90.356h104.334z" fill="url(#a)"/><path d="m97.552 125.332 52.167-90.356h-104.334z" fill="#000000"/><path d="m97.552 125.332 52.167-90.356h-104.334z" fill="url(#b)"/><path d="m97.552 125.332 11.375-19.702-33.445-57.927-11.375 19.701z" fill="#000000"/></svg>