<svg height="125pt" preserveAspectRatio="xMidYMid meet" viewBox="0 0 133 125" width="133pt" xmlns="http://www.w3.org/2000/svg"><path d="m525 1231c-121-30-200-75-296-171-68-67-94-101-122-160-89-190-88-372 5-559 121-245 411-385 680-330 83 17 228 91 293 150 133 122 205 284 205 464 0 103-19 178-72 285-126 251-421 388-693 321zm208-198c8-5 5-28-9-75-4-14 1-18 20-18 21 0 27 7 36 41 9 32 15 39 28 34 9-3 30-9 45-12 35-7 41-21 29-67-10-35-9-37 29-63 21-16 39-32 39-36 0-5-14-28-31-53l-32-43-28 20c-72 51-156 71-211 50-87-33-148-204-103-290 34-66 130-108 225-99 35 3 39 1 44-26 16-79 6-96-59-96-30 0-34-4-40-33-17-75-18-76-72-62-50 13-51 14-38 76 6 31 4 37-14 42-25 6-26 4-35-45-4-21-10-40-15-42-9-6-82 12-93 22-4 4-1 33 7 65l14 59-34 44c-109 142-39 409 130 493 38 19 46 29 55 64 19 72 16 69 63 62 23-4 46-10 50-12z" transform="matrix(.1 0 0 -.1 0 125)"/></svg>