<svg enable-background="new 0 0 93.169 93.169" fill="#9b59b6" height="93.169" viewBox="0 0 93.169 93.169" width="93.169" xmlns="http://www.w3.org/2000/svg"><path d="m64.902 0h-36.637c-3.711 0-6.72 3.009-6.72 6.72v79.729c0 3.712 3.008 6.72 6.72 6.72h36.637c3.713 0 6.722-3.008 6.722-6.72v-79.729c-.001-3.711-3.009-6.72-6.722-6.72zm-22.814 3.973h8.991c.323 0 .586.263.586.587 0 .323-.263.586-.586.586h-8.991c-.324 0-.586-.263-.586-.586 0-.324.263-.587.586-.587zm-8.962-1.41c.518 0 .938.42.938.938s-.419.938-.938.938-.938-.42-.938-.938.42-.938.938-.938zm-4.25-.562c.829 0 1.5.672 1.5 1.5s-.671 1.5-1.5 1.5-1.5-.672-1.5-1.5.671-1.5 1.5-1.5zm20.054 87.757h-4.691c-1.488 0-2.693-1.205-2.693-2.691 0-1.487 1.205-2.692 2.693-2.692h4.691c1.488 0 2.693 1.205 2.693 2.692 0 1.486-1.205 2.691-2.693 2.691zm19.847-7.51h-44.386v-71.328h44.386z"/></svg>