<svg enable-background="new 0 0 98.92 122.88" viewBox="0 0 98.92 122.88" xmlns="http://www.w3.org/2000/svg"><path d="m78.77 0c-3.29 39.36-48.34 13.5-65.45 46.28-2.42 5.34-4.03 10.29-4.8 14.84-1.26 1.55-2.42 3.22-3.45 5-5.22 9.05-6.28 19.35-3.78 28.71 2.51 9.35 8.58 17.75 17.63 22.97s19.35 6.28 28.71 3.78c9.35-2.51 17.75-8.58 22.97-17.63 2.31-4 3.8-8.24 4.54-12.54 5.32-3.1 10.02-7.48 13.62-13.28 6.08-14.12-5.01-25.38 10.17-35.32-9.38-4.72-15.1.16-20.58 9.7-5.93 12.88-28.14-2.37-7.32-10.29 17.89-6.8 16.26-27.77 7.74-42.22zm-41.75 84.91c.11 0 .23 0 .34.01l13.03-9.76c1.51-1.13 3.66-.83 4.79.68s.83 3.66-.68 4.79l-12.9 9.67c-.36 2.21-2.27 3.9-4.58 3.9-2.56 0-4.64-2.08-4.64-4.64 0-.49.08-.96.22-1.41l-13.27-10.26c-.84-.65-.99-1.85-.35-2.69.65-.84 1.85-.99 2.69-.35l13.5 10.44c.57-.24 1.19-.38 1.85-.38zm16.94-27.8c16.06 9.27 21.08 28 11.8 44.06-9.27 16.06-28 21.08-44.06 11.81s-21.08-28-11.8-44.06 28-21.08 44.06-11.81z" fill="#f1972e" stroke="#ffe4c4"/></svg>