<svg fill="none" height="21" viewBox="0 0 21 21" width="21" xmlns="http://www.w3.org/2000/svg" xmlns:xlink="http://www.w3.org/1999/xlink"><clipPath id="a"><path d="m0 0h21v21h-21z"/></clipPath><g clip-path="url(#a)" clip-rule="evenodd" fill="#fff" fill-rule="evenodd"><path d="m17.1234 4.40717-.5766.57617c2.8517 3.11864 2.8517 7.89876 0 11.01696l.5766.5762c3.1738-3.441 3.1738-8.74259 0-12.18337"/><path d="m4.99538 4.45724c3.11852-2.85193 7.89832-2.85193 11.01712 0l.5765-.57669c-3.4412-3.174167-8.74254-3.174167-12.18373 0"/><path d="m4.45725 16.007c-2.84823-3.1179-2.84823-7.89339 0-11.0113l-.57666-.57617c-3.173835 3.4412-3.173835 8.74247 0 12.18337"/><path d="m16.0066 16.5389c-3.1185 2.852-7.89841 2.852-11.017 0l-.57666.5762c3.44126 3.1742 8.74246 3.1742 12.18376 0"/><path d="m12.2471 9.03163c0 1.15317-1.8029 1.01287-2.37563 1.01287v-2.03154c.57273 0 2.37563-.18071 2.37563 1.01867zm.4709 3.15397c0 1.2609-2.1604 1.1167-2.84842 1.1167v-2.2372c.68802.0019 2.84842-.196 2.84842 1.1209zm1.4223-3.60957c-.1155-1.20315-1.1532-1.60678-2.4659-1.72977v-1.65875h-1.0149v1.62606c-.2671 0-.54 0-.81102.00964v-1.6357h-1.00906v1.66839h-2.05642v1.08592s.7496-.01351.73805 0c.13529-.01475.27105.02349.37863.10667s.17858.20479.19803.33919v4.56872c-.00287.0471-.01499.0931-.03569.1355-.02069.0423-.04955.0802-.08493.1115-.03537.0312-.07657.0552-.12124.0706-.04466.0153-.09193.0218-.13908.0189-.00116.0001-.00232.0001-.00347 0 .01344.0115-.73804 0-.73804 0l-.20181 1.2129h2.04865v1.6952h1.01482v-1.6705h.81108v1.6625h1.0168v-1.6761c1.7144-.1038 2.9099-.5267 3.0598-2.1315.1211-1.2915-.4866-1.8677-1.4569-2.1006.5901-.29987.9611-.82848.8726-1.70877"/><path d="m10.4981.818768c-5.34368.003247-9.673031 4.337602-9.669776 9.681232.003255 5.3436 4.337646 9.6729 9.680976 9.6696 5.3399-.0031 9.6676-4.3318 9.6697-9.6715-.0064-5.34267-4.3384-9.671475-9.681-9.673571zm0 20.181232c-5.79896-.001-10.49927505-4.7028-10.49812006-10.5019.001155-5.7991 4.70294006-10.49927235 10.50192006-10.49812001 5.7989.00115234 10.4971 4.70049001 10.4981 10.49812001-.0063 5.7973-4.704 10.4954-10.5019 10.5019z"/></g></svg>